<?xml version="1.0" standalone="no"?>
<!DOCTYPE svg PUBLIC "-//W3C//DTD SVG 20010904//EN"
 "http://www.w3.org/TR/2001/REC-SVG-20010904/DTD/svg10.dtd">
<svg version="1.0" xmlns="http://www.w3.org/2000/svg"
 width="700.000000pt" height="700.000000pt" viewBox="0 0 700.000000 700.000000"
 preserveAspectRatio="xMidYMid meet">
<metadata>
Created by potrace 1.11, written by Peter Selinger 2001-2013
</metadata>
<g transform="translate(0.000000,700.000000) scale(0.100000,-0.100000)"
fill="#000000" stroke="none">
<path d="M2321 6985 c-328 -92 -434 -495 -193 -734 56 -55 136 -103 197 -117
17 -3 68 -7 114 -8 l85 -3 42 -99 c24 -54 45 -106 48 -114 3 -8 38 -94 79
-190 l75 -175 -92 -31 c-564 -191 -1039 -595 -1317 -1120 -29 -54 -54 -101
-55 -103 -2 -2 -94 34 -206 79 -112 45 -208 84 -214 87 -6 2 -8 27 -6 63 15
227 -165 437 -392 457 -143 12 -258 -29 -356 -127 -100 -99 -144 -233 -123
-370 59 -380 528 -508 774 -213 l26 31 208 -84 c114 -46 210 -86 213 -88 2 -3
-10 -49 -27 -103 -63 -198 -92 -350 -110 -565 -37 -468 91 -992 340 -1389 169
-268 353 -469 599 -653 332 -248 708 -397 1135 -450 163 -20 476 -14 635 13
236 41 446 106 649 203 57 27 107 46 111 41 5 -4 26 -51 48 -103 22 -52 101
-241 177 -420 76 -179 161 -381 190 -450 101 -240 97 -233 145 -244 35 -9 93
23 100 54 7 29 -4 75 -32 140 -31 69 -39 88 -143 335 -52 127 -102 244 -109
260 -8 17 -51 118 -96 225 -45 107 -90 213 -100 235 -31 68 -31 69 55 130 309
222 570 526 739 863 l46 92 33 -14 c33 -15 103 -43 457 -186 267 -108 490
-198 515 -210 116 -52 306 -122 329 -122 66 1 106 96 60 142 -11 11 -121 61
-244 111 -485 198 -792 322 -936 381 l-152 61 18 53 c27 78 67 230 79 299 6
33 12 73 15 88 15 88 21 182 21 347 0 195 -10 326 -31 420 -3 14 -8 36 -10 50
-33 186 -116 419 -220 619 -275 524 -725 917 -1289 1124 -68 25 -162 54 -201
61 -11 2 -37 9 -59 14 -22 6 -80 18 -130 26 -49 8 -106 18 -125 21 -19 3 -127
8 -240 9 -190 3 -236 0 -440 -29 -30 -4 -63 -8 -73 -9 -20 -1 -25 10 -141 289
-61 146 -81 192 -119 279 -13 27 -11 30 44 85 90 91 132 189 131 315 -1 177
-116 344 -279 406 -75 29 -198 35 -272 15z m224 -186 c90 -42 147 -126 151
-222 3 -75 -18 -135 -66 -190 -150 -170 -434 -78 -457 147 -21 201 190 351
372 265z m950 -1341 c5 -4 -183 -156 -331 -266 l-44 -32 -10 24 c-5 14 -27 67
-49 118 -53 125 -53 120 -6 129 68 12 127 19 210 25 44 4 81 7 82 8 5 4 143
-1 148 -6z m390 -44 c147 -25 480 -146 576 -209 18 -11 16 -12 -301 -261 -74
-58 -144 -113 -155 -122 -11 -9 -38 -30 -60 -46 -22 -17 -42 -32 -45 -36 -3
-3 -23 -18 -45 -35 -22 -16 -42 -32 -45 -35 -3 -3 -43 -35 -90 -70 -46 -36
-94 -73 -105 -82 -11 -9 -285 -225 -610 -479 -324 -253 -605 -473 -624 -488
-18 -14 -41 -33 -51 -42 -11 -8 -31 -24 -45 -35 -15 -10 -55 -41 -89 -68 -33
-27 -119 -94 -191 -149 -71 -56 -132 -104 -135 -107 -3 -3 -77 -62 -165 -130
-88 -69 -167 -130 -175 -137 -8 -6 -55 -43 -105 -82 l-90 -70 -8 27 c-20 74
-47 224 -55 312 -4 41 -7 151 -7 243 0 157 1 170 20 183 11 8 34 25 50 38 17
13 120 94 230 180 110 87 211 166 224 176 14 11 58 45 99 77 41 32 145 113
231 181 86 68 170 134 186 146 17 13 68 54 115 90 47 37 99 77 115 90 17 13
137 107 267 210 131 102 241 186 245 186 5 0 28 -49 52 -108 80 -196 106 -247
134 -259 59 -27 127 19 122 82 -1 17 -39 114 -82 217 l-80 187 111 88 c61 48
116 91 121 95 6 4 24 19 41 32 17 14 91 72 164 129 l132 104 47 -9 c25 -5 60
-11 76 -14z m-980 -191 c35 -84 65 -159 67 -166 2 -12 -194 -171 -707 -571
-175 -137 -682 -535 -800 -627 -82 -65 -151 -114 -153 -109 -2 5 8 53 23 107
150 558 523 1041 1022 1323 146 83 434 203 471 197 7 -1 42 -71 77 -154z
m1813 -180 c118 -84 303 -256 374 -347 l22 -29 -34 -28 c-29 -23 -317 -249
-425 -333 -35 -28 -275 -216 -320 -250 -16 -13 -142 -112 -280 -220 -137 -108
-303 -238 -369 -289 -65 -50 -133 -104 -150 -118 -41 -34 -613 -481 -696 -544
-36 -28 -67 -53 -70 -56 -3 -3 -48 -39 -100 -79 -52 -40 -124 -96 -160 -125
-36 -28 -149 -118 -252 -198 -104 -81 -272 -213 -374 -293 -174 -137 -186
-145 -200 -127 -84 108 -199 311 -259 457 -32 76 -35 90 -22 98 9 4 45 32 80
61 36 28 121 96 189 149 103 81 738 578 833 652 17 13 91 71 165 130 225 177
236 186 505 396 283 222 468 367 699 548 143 112 192 151 482 377 70 55 159
126 198 157 39 31 77 57 85 57 7 1 43 -20 79 -46z m-4174 -258 c56 -23 111
-80 136 -138 77 -176 -55 -373 -245 -366 -94 4 -161 39 -211 110 -99 143 -32
344 132 400 56 19 135 16 188 -6z m4723 -327 c112 -175 211 -402 263 -601 16
-65 30 -124 30 -132 0 -11 -117 -13 -685 -13 -377 0 -685 2 -685 3 0 2 71 59
158 126 86 68 159 126 162 129 3 3 66 53 140 110 115 89 350 273 400 313 81
65 163 127 169 127 4 0 26 -28 48 -62z m324 -932 c0 -6 3 -20 5 -31 13 -59 6
-398 -11 -491 -2 -11 -6 -43 -10 -71 l-7 -53 -147 0 c-80 0 -441 -1 -801 -1
l-654 0 -183 183 c-101 101 -183 186 -183 189 0 4 62 54 138 113 75 59 147
116 158 126 53 49 23 47 884 47 583 0 810 -3 811 -11z m-1410 -1111 l720 -719
-28 -26 c-122 -111 -374 -276 -515 -337 -26 -12 -39 1 -727 688 -386 385 -701
703 -700 707 0 4 70 61 155 127 86 66 201 157 257 202 56 45 106 81 110 80 4
-1 332 -326 728 -722z m1333 260 c-13 -60 -98 -273 -151 -375 -51 -99 -180
-301 -220 -345 -10 -11 -40 -46 -67 -78 l-50 -58 -438 438 c-361 361 -435 439
-418 443 12 3 320 5 686 5 l664 0 -6 -30z m-1364 -1426 c0 -4 -10 -9 -22 -12
-13 -2 -63 -16 -113 -31 -171 -51 -364 -77 -573 -78 l-113 -1 -537 536 c-526
526 -536 537 -517 555 11 10 58 47 105 82 47 36 95 74 108 84 12 11 84 68 160
127 l137 106 682 -681 c376 -374 683 -684 683 -687z m-1571 380 c254 -254 460
-463 458 -465 -2 -3 -64 11 -138 30 -378 95 -709 281 -987 554 l-106 104 27
20 c14 11 82 64 149 118 68 54 126 99 129 99 4 1 214 -207 468 -460z"/>
</g>
</svg>
